<mxfile host="app.diagrams.net" modified="2023-11-05T23:05:31.667Z" agent="Mozilla/5.0 (Windows NT 10.0; Win64; x64; rv:109.0) Gecko/20100101 Firefox/119.0" etag="PZxaeGgGcigvhtzIz_ON" version="22.0.8" type="github">
  <diagram id="a45cf8ec-cd66-6f27-3ac3-be6e809c9e4a" name="Page-1">
    <mxGraphModel dx="1562" dy="826" grid="1" gridSize="10" guides="1" tooltips="1" connect="1" arrows="1" fold="1" page="1" pageScale="1" pageWidth="827" pageHeight="1169" background="none" math="0" shadow="0">
      <root>
        <mxCell id="0" />
        <mxCell id="1" parent="0" />
        <mxCell id="yyix4hzH2c3j0yXBwJ8c-173" value="" style="image;html=1;image=img/lib/clip_art/networking/Switch_128x128.png" vertex="1" parent="1">
          <mxGeometry x="150" y="480" width="80" height="80" as="geometry" />
        </mxCell>
        <mxCell id="yyix4hzH2c3j0yXBwJ8c-174" value="" style="image;points=[];aspect=fixed;html=1;align=center;shadow=0;dashed=0;image=img/lib/allied_telesis/media_converters/Media_Converter_Standalone.svg;" vertex="1" parent="1">
          <mxGeometry x="430" y="370" width="45.6" height="37.2" as="geometry" />
        </mxCell>
      </root>
    </mxGraphModel>
  </diagram>
</mxfile>
